<svg width="53" height="53" viewBox="0 0 53 53" fill="none" xmlns="http://www.w3.org/2000/svg">
<path d="M46.5262 8.50954H6.47384C2.90432 8.50954 0 11.4139 0 14.9834V38.0166C0 41.5861 2.90432 44.4905 6.47384 44.4905H46.5262C50.0957 44.4905 53 41.5861 53 38.0166V14.9841C53.0007 11.4139 50.0964 8.50954 46.5262 8.50954ZM43.3628 12.733L26.5 23.5971L9.6372 12.733H43.3628ZM46.5262 40.2677H6.47384C5.23285 40.2677 4.22344 39.2576 4.22344 38.0173V15.1037L25.1971 28.5906C25.2252 28.6082 25.2555 28.6202 25.2844 28.6364C25.3146 28.6533 25.3456 28.6694 25.3766 28.6849C25.5392 28.7687 25.7067 28.8363 25.8777 28.8806C25.8953 28.8855 25.9129 28.8877 25.9305 28.8919C26.1185 28.9362 26.3085 28.9637 26.4986 28.9637C26.4993 28.9637 26.5 28.9637 26.5 28.9637C26.5014 28.9637 26.5021 28.9637 26.5028 28.9637C26.6929 28.9637 26.8829 28.9369 27.0709 28.8919C27.0885 28.8877 27.1061 28.8855 27.1237 28.8806C27.2947 28.8363 27.4615 28.7687 27.6248 28.6849C27.6558 28.6694 27.6868 28.6533 27.7171 28.6364C27.7459 28.6202 27.7762 28.6082 27.8043 28.5906L48.778 15.1037V38.0166C48.7773 39.2576 47.7672 40.2677 46.5262 40.2677Z" fill="#FFE5B4"/>
</svg>
