<svg width="53" height="53" viewBox="0 0 53 53" fill="none" xmlns="http://www.w3.org/2000/svg">
<path d="M44.6083 6.07294H39.3083C37.725 6.07294 36.4375 7.3604 36.4375 8.94377V14.2438C36.4375 15.8271 37.725 17.1146 39.3083 17.1146H44.6083C46.1917 17.1146 47.4792 15.8271 47.4792 14.2438V8.94377C47.4792 7.3604 46.1917 6.07294 44.6083 6.07294ZM45.2708 14.2438C45.2708 14.6092 44.9738 14.9063 44.6083 14.9063H39.3083C38.9429 14.9063 38.6458 14.6092 38.6458 14.2438V8.94377C38.6458 8.57829 38.9429 8.28127 39.3083 8.28127H44.6083C44.9738 8.28127 45.2708 8.57829 45.2708 8.94377V14.2438Z" fill="#FFE5B4"/>
<path d="M41.7375 0.552094H11.2625C5.05267 0.552094 0 5.61911 0 11.8488V19.3229V21.5313V41.1523C0 47.3809 5.05267 52.4479 11.2625 52.4479H41.7375C47.9473 52.4479 53 47.3809 53 41.1523V21.5313V19.3229V11.8488C53 5.61911 47.9473 0.552094 41.7375 0.552094ZM50.7917 41.1523C50.7917 46.163 46.7294 50.2396 41.7375 50.2396H11.2625C6.26946 50.2396 2.20833 46.163 2.20833 41.1523V21.5313H15.7024C12.8304 24.3392 11.0417 28.249 11.0417 32.5729C11.0417 41.0971 17.9758 48.0313 26.5 48.0313C35.0242 48.0313 41.9583 41.0971 41.9583 32.5729C41.9583 28.249 40.1696 24.3392 37.2976 21.5313H50.7917V41.1523ZM39.75 32.5729C39.75 39.8792 33.8063 45.8229 26.5 45.8229C19.1937 45.8229 13.25 39.8792 13.25 32.5729C13.25 25.2667 19.1937 19.3229 26.5 19.3229C33.8063 19.3229 39.75 25.2667 39.75 32.5729ZM34.4213 19.3229C32.1014 17.9306 29.3973 17.1146 26.5 17.1146C23.6027 17.1146 20.8986 17.9306 18.5787 19.3229H2.20833V11.8488C2.20833 6.83701 6.27056 2.76043 11.2625 2.76043H41.7375C46.7294 2.76043 50.7917 6.83701 50.7917 11.8488V19.3229H34.4213Z" fill="#FFE5B4"/>
<path d="M16.5625 32.5729C16.5625 38.0518 21.02 42.5104 26.5 42.5104C31.98 42.5104 36.4375 38.0518 36.4375 32.5729C36.4375 27.0941 31.98 22.6354 26.5 22.6354C21.02 22.6354 16.5625 27.0941 16.5625 32.5729ZM34.2292 32.5729C34.2292 36.835 30.761 40.3021 26.5 40.3021C22.239 40.3021 18.7708 36.835 18.7708 32.5729C18.7708 28.3109 22.239 24.8438 26.5 24.8438C30.761 24.8438 34.2292 28.3109 34.2292 32.5729Z" fill="#FFE5B4"/>
</svg>
