<svg width="222" height="112" viewBox="0 0 222 112" fill="none" xmlns="http://www.w3.org/2000/svg">
<path d="M10.2428 42.6663C4.74288 42.6863 0.259271 47.2026 0.279266 52.7025L0.349427 72.0024L7.34938 71.977L7.31557 62.677L10.3156 62.6661C15.8655 62.646 20.2991 58.1298 20.2791 52.6298C20.2591 47.1299 15.7928 42.6461 10.2428 42.6663ZM10.2901 55.6662L7.29013 55.6771L7.27904 52.6271C7.32322 51.0269 8.6183 49.6722 10.2683 49.6662C11.9183 49.6602 13.2732 51.0053 13.2792 52.6553C13.2852 54.3053 11.9401 55.6602 10.2901 55.6662ZM37.4595 42.5673C31.9595 42.5873 27.4759 47.1036 27.4959 52.6036L27.566 71.9035L34.566 71.878L34.5351 63.3781L40.5351 63.3563L40.566 71.8562L47.5659 71.8308L47.4958 52.5309C47.4758 47.0309 43.0094 42.5471 37.4595 42.5673ZM34.5097 56.3781L34.4958 52.5782C34.4898 50.9282 35.8349 49.5733 37.4849 49.5673C39.1349 49.5613 40.4898 50.9064 40.4958 52.5563L40.5096 56.3563L34.5097 56.3781ZM67.7951 61.7572C67.801 63.4072 66.456 64.7621 64.806 64.7681C63.156 64.7741 61.8011 63.429 61.7951 61.779L61.7249 42.4791L54.725 42.5046L54.7951 61.8044C54.8151 67.3044 59.3315 71.788 64.8314 71.768C70.3814 71.7478 74.815 67.2317 74.795 61.7317L74.7248 42.4318L67.7249 42.4573L67.7951 61.7572ZM116.236 57.781C117.281 56.2272 117.874 54.3251 117.866 52.2751C117.846 46.7751 113.38 42.2913 107.83 42.3115C102.33 42.3315 97.8465 46.8478 97.8665 52.3478L97.9367 71.6477L104.937 71.6222L104.903 62.3223L107.903 62.3114C110.103 62.3034 111.508 63.7483 111.463 65.2484L111.487 71.5984L118.537 71.5728L118.503 62.4728C118.497 60.5728 117.591 58.9261 116.236 57.781ZM104.877 55.3223L104.866 52.2723C104.91 50.6722 106.206 49.3174 107.856 49.3115C109.506 49.3055 110.86 50.6505 110.866 52.3005C110.872 53.9505 109.527 55.3054 107.877 55.3114L104.877 55.3223ZM126.325 71.5445L133.325 71.519L133.219 42.2192L126.219 42.2446L126.325 71.5445ZM154.147 42.1431C146.597 42.1706 140.471 48.7929 140.5 56.8428C140.53 64.9428 146.704 71.4704 154.253 71.4429C161.803 71.4155 167.93 64.8432 167.9 56.7432C167.871 48.6933 161.697 42.1157 154.147 42.1431ZM154.228 64.443C150.528 64.4564 147.516 61.0174 147.5 56.8174C147.485 52.6174 150.473 49.2065 154.173 49.1931C157.823 49.1798 160.835 52.5689 160.85 56.7688C160.865 60.9688 157.878 64.4297 154.228 64.443ZM181.529 50.1436C181.574 48.8935 182.425 49.0404 183.475 49.0365L191.075 49.0089L191.049 42.009L183.4 42.0368C178.5 42.0546 174.561 45.2689 174.529 50.1691C174.501 56.1192 184.919 61.2314 184.926 63.1814C184.931 64.4814 184.031 64.3346 182.981 64.3384L174.581 64.369L174.606 71.3689L183.056 71.3382C187.956 71.3204 191.944 68.1059 191.926 63.1559C191.905 57.206 181.537 52.3936 181.529 50.1436ZM208.591 41.9452C203.091 41.9652 198.608 46.4815 198.628 51.9815L198.698 71.2814L205.698 71.2559L205.667 62.756L211.667 62.7342L211.698 71.2341L218.698 71.2087L218.627 51.9088C218.607 46.4088 214.141 41.925 208.591 41.9452ZM205.641 55.756L205.628 51.956C205.622 50.306 206.967 48.9511 208.617 48.9452C210.267 48.9392 211.621 50.2842 211.627 51.9342L211.641 55.7342L205.641 55.756Z" fill="#FFC102"/>
<path d="M10.2428 69.6663C4.74288 69.6863 0.259271 74.2026 0.279266 79.7025L0.349427 99.0024L7.34938 98.977L7.31557 89.677L10.3156 89.6661C15.8655 89.646 20.2991 85.1298 20.2791 79.6298C20.2591 74.1299 15.7928 69.6461 10.2428 69.6663ZM10.2901 82.6662L7.29013 82.6771L7.27904 79.6271C7.32322 78.0269 8.6183 76.6722 10.2683 76.6662C11.9183 76.6602 13.2732 78.0053 13.2792 79.6553C13.2852 81.3053 11.9401 82.6602 10.2901 82.6662ZM37.4595 69.5673C31.9595 69.5873 27.4759 74.1036 27.4959 79.6036L27.566 98.9035L34.566 98.878L34.5351 90.3781L40.5351 90.3563L40.566 98.8562L47.5659 98.8308L47.4958 79.5309C47.4758 74.0309 43.0094 69.5471 37.4595 69.5673ZM34.5097 83.3781L34.4958 79.5782C34.4898 77.9282 35.8349 76.5733 37.4849 76.5673C39.1349 76.5613 40.4898 77.9064 40.4958 79.5563L40.5096 83.3563L34.5097 83.3781ZM67.7951 88.7572C67.801 90.4072 66.456 91.7621 64.806 91.7681C63.156 91.7741 61.8011 90.429 61.7951 88.779L61.7249 69.4791L54.725 69.5046L54.7951 88.8044C54.8151 94.3044 59.3315 98.788 64.8314 98.768C70.3814 98.7478 74.815 94.2317 74.795 88.7317L74.7248 69.4318L67.7249 69.4573L67.7951 88.7572ZM116.236 84.781C117.281 83.2272 117.874 81.3251 117.866 79.2751C117.846 73.7751 113.38 69.2913 107.83 69.3115C102.33 69.3315 97.8465 73.8478 97.8665 79.3478L97.9367 98.6477L104.937 98.6222L104.903 89.3223L107.903 89.3114C110.103 89.3034 111.508 90.7483 111.463 92.2484L111.487 98.5984L118.537 98.5728L118.503 89.4728C118.497 87.5728 117.591 85.9261 116.236 84.781ZM104.877 82.3223L104.866 79.2723C104.91 77.6722 106.206 76.3174 107.856 76.3115C109.506 76.3055 110.86 77.6505 110.866 79.3005C110.872 80.9505 109.527 82.3054 107.877 82.3114L104.877 82.3223ZM126.325 98.5445L133.325 98.519L133.219 69.2192L126.219 69.2446L126.325 98.5445ZM154.147 69.1431C146.597 69.1706 140.471 75.7929 140.5 83.8428C140.53 91.9428 146.704 98.4704 154.253 98.4429C161.803 98.4155 167.93 91.8432 167.9 83.7432C167.871 75.6933 161.697 69.1157 154.147 69.1431ZM154.228 91.443C150.528 91.4564 147.516 88.0174 147.5 83.8174C147.485 79.6174 150.473 76.2065 154.173 76.1931C157.823 76.1798 160.835 79.5689 160.85 83.7688C160.865 87.9688 157.878 91.4297 154.228 91.443ZM181.529 77.1436C181.574 75.8935 182.425 76.0404 183.475 76.0365L191.075 76.0089L191.049 69.009L183.4 69.0368C178.5 69.0546 174.561 72.2689 174.529 77.1691C174.501 83.1192 184.919 88.2314 184.926 90.1814C184.931 91.4814 184.031 91.3346 182.981 91.3384L174.581 91.369L174.606 98.3689L183.056 98.3382C187.956 98.3204 191.944 95.1059 191.926 90.1559C191.905 84.206 181.537 79.3936 181.529 77.1436ZM208.591 68.9452C203.091 68.9652 198.608 73.4815 198.628 78.9815L198.698 98.2814L205.698 98.2559L205.667 89.756L211.667 89.7342L211.698 98.2341L218.698 98.2087L218.627 78.9088C218.607 73.4088 214.141 68.925 208.591 68.9452ZM205.641 82.756L205.628 78.956C205.622 77.306 206.967 75.9511 208.617 75.9452C210.267 75.9392 211.621 77.2842 211.627 78.9342L211.641 82.7342L205.641 82.756Z" fill="#FFC102" fill-opacity="0.25"/>
<path d="M10.2428 14.6663C4.74288 14.6863 0.259271 19.2026 0.279266 24.7025L0.349427 44.0024L7.34938 43.977L7.31557 34.677L10.3156 34.6661C15.8655 34.646 20.2991 30.1298 20.2791 24.6298C20.2591 19.1299 15.7928 14.6461 10.2428 14.6663ZM10.2901 27.6662L7.29013 27.6771L7.27904 24.6271C7.32322 23.0269 8.6183 21.6722 10.2683 21.6662C11.9183 21.6602 13.2732 23.0053 13.2792 24.6553C13.2852 26.3053 11.9401 27.6602 10.2901 27.6662ZM37.4595 14.5673C31.9595 14.5873 27.4759 19.1036 27.4959 24.6036L27.566 43.9035L34.566 43.878L34.5351 35.3781L40.5351 35.3563L40.566 43.8562L47.5659 43.8308L47.4958 24.5309C47.4758 19.0309 43.0094 14.5471 37.4595 14.5673ZM34.5097 28.3781L34.4958 24.5782C34.4898 22.9282 35.8349 21.5733 37.4849 21.5673C39.1349 21.5613 40.4898 22.9064 40.4958 24.5563L40.5096 28.3563L34.5097 28.3781ZM67.7951 33.7572C67.801 35.4072 66.456 36.7621 64.806 36.7681C63.156 36.7741 61.8011 35.429 61.7951 33.779L61.7249 14.4791L54.725 14.5046L54.7951 33.8044C54.8151 39.3044 59.3315 43.788 64.8314 43.768C70.3814 43.7478 74.815 39.2317 74.795 33.7317L74.7248 14.4318L67.7249 14.4573L67.7951 33.7572ZM116.236 29.781C117.281 28.2272 117.874 26.3251 117.866 24.2751C117.846 18.7751 113.38 14.2913 107.83 14.3115C102.33 14.3315 97.8465 18.8478 97.8665 24.3478L97.9367 43.6477L104.937 43.6222L104.903 34.3223L107.903 34.3114C110.103 34.3034 111.508 35.7483 111.463 37.2484L111.487 43.5984L118.537 43.5728L118.503 34.4728C118.497 32.5728 117.591 30.9261 116.236 29.781ZM104.877 27.3223L104.866 24.2723C104.91 22.6722 106.206 21.3174 107.856 21.3115C109.506 21.3055 110.86 22.6505 110.866 24.3005C110.872 25.9505 109.527 27.3054 107.877 27.3114L104.877 27.3223ZM126.325 43.5445L133.325 43.519L133.219 14.2192L126.219 14.2446L126.325 43.5445ZM154.147 14.1431C146.597 14.1706 140.471 20.7929 140.5 28.8428C140.53 36.9428 146.704 43.4704 154.253 43.4429C161.803 43.4155 167.93 36.8432 167.9 28.7432C167.871 20.6933 161.697 14.1157 154.147 14.1431ZM154.228 36.443C150.528 36.4564 147.516 33.0174 147.5 28.8174C147.485 24.6174 150.473 21.2065 154.173 21.1931C157.823 21.1798 160.835 24.5689 160.85 28.7688C160.865 32.9688 157.878 36.4297 154.228 36.443ZM181.529 22.1436C181.574 20.8935 182.425 21.0404 183.475 21.0365L191.075 21.0089L191.049 14.009L183.4 14.0368C178.5 14.0546 174.561 17.2689 174.529 22.1691C174.501 28.1192 184.919 33.2314 184.926 35.1814C184.931 36.4814 184.031 36.3346 182.981 36.3384L174.581 36.369L174.606 43.3689L183.056 43.3382C187.956 43.3204 191.944 40.1059 191.926 35.1559C191.905 29.206 181.537 24.3936 181.529 22.1436ZM208.591 13.9452C203.091 13.9652 198.608 18.4815 198.628 23.9815L198.698 43.2814L205.698 43.2559L205.667 34.756L211.667 34.7342L211.698 43.2341L218.698 43.2087L218.627 23.9088C218.607 18.4088 214.141 13.925 208.591 13.9452ZM205.641 27.756L205.628 23.956C205.622 22.306 206.967 20.9511 208.617 20.9452C210.267 20.9392 211.621 22.2842 211.627 23.9342L211.641 27.7342L205.641 27.756Z" fill="#FFC102" fill-opacity="0.25"/>
</svg>
