<svg width="60" height="60" viewBox="0 0 60 60" fill="none" xmlns="http://www.w3.org/2000/svg">
<g clip-path="url(#clip0_166_31)">
<rect width="60" height="60" fill="white"/>
<path d="M59.4625 10.9446C59.0278 10.6505 58.4539 10.6653 58.0359 10.9829C57.6126 11.3034 56.9256 11.5791 56.1447 11.8051C58.2828 9.3089 58.3271 7.64015 58.3019 7.24734C58.2732 6.80191 58.0041 6.40734 57.6005 6.21714C57.1951 6.02824 56.7204 6.073 56.3598 6.33492C53.7943 8.19914 51.24 8.60519 49.7046 8.65054C47.3214 6.3839 44.2315 5.14148 40.946 5.14148C33.883 5.14148 28.1366 10.9638 28.1366 18.1201C28.1366 18.6995 28.175 19.2777 28.2502 19.8511C16.1925 19.6459 6.40608 8.1041 6.30507 7.98269C6.04913 7.67601 5.66054 7.50914 5.2587 7.54746C4.8605 7.58214 4.50355 7.80937 4.30386 8.15554C0.904834 14.0527 2.98128 19.2561 5.06616 22.3736C4.85089 22.2456 4.67452 22.1278 4.55382 22.0387C4.1855 21.7649 3.69401 21.7194 3.2821 21.9221C2.86948 22.1255 2.60581 22.5416 2.59808 23.0013C2.50597 28.6562 5.14854 31.965 7.71612 33.84C7.43815 33.8783 7.17741 34.011 6.98183 34.2239C6.68769 34.5431 6.58421 34.9945 6.71101 35.4101C8.49155 41.2384 12.8096 43.3029 15.661 44.0336C9.893 48.3857 1.53319 46.9651 1.4405 46.9477C0.886201 46.8503 0.331435 47.1425 0.103623 47.6604C-0.123604 48.1775 0.031904 48.7839 0.481552 49.1264C6.62968 53.8187 13.9827 54.8584 19.2937 54.8584C23.3099 54.8584 26.1577 54.2634 26.4316 54.2043C53.2226 47.8552 54.0719 23.3766 54.0168 19.205C59.0427 14.5259 59.8332 12.7298 59.9563 12.2831C60.0951 11.7776 59.8966 11.2394 59.4625 10.9446ZM51.9473 17.7834C51.6742 18.0346 51.5301 18.3969 51.5551 18.7676C51.5594 18.8333 51.9695 25.4682 49.0129 32.8612C45.0626 42.7391 37.2749 49.1181 25.891 51.8159C25.769 51.8415 15.238 54.0226 5.99347 49.6257C9.94562 49.46 15.4187 48.3469 19.2699 44.0235C19.5916 43.6629 19.6681 43.1055 19.4701 42.6649C19.2722 42.2255 18.8328 41.902 18.3509 41.902C18.3485 41.902 18.3461 41.902 18.3426 41.902C18.0191 41.902 12.4437 41.8602 9.77229 36.4755C10.8526 36.5222 12.1442 36.4586 13.185 35.979C13.6646 35.7578 13.9479 35.2642 13.8887 34.7399C13.8296 34.2155 13.441 33.7931 12.9243 33.6843C12.6248 33.6209 6.16855 32.18 5.17315 25.1655C6.16503 25.5787 7.40147 25.8988 8.63136 25.7146C9.10374 25.644 9.49058 25.3044 9.6244 24.8459C9.75776 24.3879 9.61187 23.8931 9.25128 23.5792C8.97202 23.3366 2.88483 17.9222 5.67226 10.9261C8.97202 14.3634 18.3824 22.9223 29.7933 22.2682C30.1574 22.2472 30.4935 22.0643 30.7097 21.7702C30.9257 21.476 30.9993 21.1011 30.9101 20.7473C30.6948 19.89 30.5855 19.0063 30.5855 18.1202C30.5855 12.3141 35.2329 7.59058 40.9459 7.59058C43.7399 7.59058 46.3603 8.70562 48.3252 10.7307C48.5506 10.9634 48.8591 11.0966 49.1833 11.1027C50.3151 11.1135 52.1787 10.9915 54.2846 10.2082C53.6566 10.9436 52.7785 11.8045 51.5503 12.769C51.1259 13.1026 50.9698 13.6754 51.1664 14.1783C51.3638 14.6823 51.8761 15.0009 52.4046 14.9525C52.6521 14.9328 53.8521 14.827 55.2584 14.5418C54.4526 15.3984 53.3782 16.4675 51.9473 17.7834Z" fill="#FFE5B4"/>
</g>
<defs>
<clipPath id="clip0_166_31">
<rect width="60" height="60" fill="white"/>
</clipPath>
</defs>
</svg>
