<svg width="60" height="60" viewBox="0 0 60 60" fill="none" xmlns="http://www.w3.org/2000/svg">
<path d="M30 0C13.4348 0 0 13.4348 0 30C0 46.5652 13.4348 60 30 60C46.5652 60 60 46.5652 60 30C60 13.4348 46.5652 0 30 0ZM32.413 54.6522C32.2826 54.6522 32.1522 54.6522 31.9565 54.7174V40.5652C35.3478 40.5 38.413 40.4348 41.2174 40.2391C38.7391 47.8696 34.1087 52.9565 32.413 54.6522ZM27.587 54.6522C25.8261 52.8913 21.2609 47.8044 18.7826 40.2391C21.5217 40.4348 24.6522 40.5652 28.0435 40.5652V54.7174C27.913 54.7174 27.7826 54.6522 27.587 54.6522ZM5.21739 30C5.21739 28.3696 5.41304 26.7391 5.67391 25.1739C7.1087 24.913 9.84783 24.5217 13.6957 24.1304C13.3696 26.0217 13.1739 27.9783 13.1739 30.0652C13.1739 32.1522 13.3696 34.1087 13.6304 35.9348C9.84783 35.5435 7.04348 35.1522 5.6087 34.8913C5.41304 33.2609 5.21739 31.6304 5.21739 30ZM17.1522 30C17.1522 27.7826 17.413 25.6957 17.8043 23.7391C20.8043 23.5435 24.1957 23.3478 28.0435 23.3478V36.6522C24.2609 36.587 20.8043 36.4565 17.7391 36.1957C17.413 34.3043 17.1522 32.2174 17.1522 30ZM32.3478 5.34783C34.1087 7.1087 38.6087 12.3261 41.1522 19.7609C38.413 19.5652 35.3478 19.4348 31.9565 19.4348V5.28261C32.087 5.28261 32.2174 5.34783 32.3478 5.34783ZM28.0435 5.28261V19.4348C24.6522 19.5 21.587 19.5652 18.8478 19.7609C21.3261 12.3261 25.8913 7.1087 27.587 5.34783C27.7826 5.34783 27.913 5.28261 28.0435 5.28261ZM31.9565 36.6522V23.3478C35.7391 23.413 39.1957 23.5435 42.1957 23.7391C42.587 25.6957 42.8478 27.7826 42.8478 30C42.8478 32.2174 42.6522 34.3043 42.2609 36.2609C39.2609 36.4565 35.8043 36.587 31.9565 36.6522ZM46.2391 24.1304C50.087 24.5217 52.8261 24.913 54.2609 25.1739C54.587 26.7391 54.7826 28.3696 54.7826 30C54.7826 31.6304 54.587 33.2609 54.3261 34.8261C52.8913 35.087 50.1522 35.4783 46.3043 35.8696C46.6304 33.9783 46.7609 32.0217 46.7609 29.9348C46.7609 27.9783 46.5652 25.9565 46.2391 24.1304ZM53.087 21C51.2609 20.7391 48.6522 20.413 45.3261 20.087C43.7609 14.4783 41.0217 9.97826 38.7391 6.78261C45.3261 9.26087 50.5435 14.4783 53.087 21ZM21.2609 6.78261C18.913 9.91304 16.2391 14.413 14.6739 20.0217C11.413 20.2826 8.80435 20.6739 6.91304 20.9348C9.45652 14.4783 14.7391 9.26087 21.2609 6.78261ZM6.91304 39C8.73913 39.2609 11.3478 39.587 14.6087 39.913C16.1739 45.5217 18.7826 50.0217 21.1304 53.1522C14.6087 50.6087 9.45652 45.4565 6.91304 39ZM38.8696 53.1522C41.2174 50.0217 43.8261 45.587 45.3913 39.9783C48.6522 39.7174 51.2609 39.3261 53.087 39.0652C50.5435 45.4565 45.3913 50.6087 38.8696 53.1522Z" fill="#FFE5B4"/>
</svg>
