<svg width="60" height="60" viewBox="0 0 60 60" fill="none" xmlns="http://www.w3.org/2000/svg">
<rect width="60" height="60" fill="white"/>
<path d="M48.0686 7.9592H11.9314C5.35225 7.9592 0 13.3286 0 19.9274V40.0714C0 46.6714 5.35225 52.0396 11.9314 52.0396H48.0686C54.6478 52.0396 60 46.6702 60 40.0714V19.9274C60 13.3286 54.6478 7.9592 48.0686 7.9592ZM57.551 40.0727C57.551 45.3221 53.2971 49.5918 48.0686 49.5918H11.9314C6.70286 49.5918 2.44898 45.3208 2.44898 40.0727V19.9274C2.44898 14.6792 6.70286 10.4082 11.9314 10.4082H48.0686C53.2971 10.4082 57.551 14.6792 57.551 19.9274V40.0727Z" fill="#FFE5B4"/>
<path d="M40.8492 29.5568L23.8839 19.62C23.5067 19.3996 23.0378 19.3959 22.6569 19.6139C22.2761 19.8319 22.041 20.2372 22.041 20.6767V40.549C22.041 40.9874 22.2761 41.3939 22.6557 41.6119C22.8443 41.7196 23.0549 41.7735 23.2655 41.7735C23.4798 41.7735 23.6929 41.7172 23.8839 41.6057L40.8492 31.6714C41.2239 31.4523 41.4553 31.0494 41.4553 30.6147C41.4553 30.18 41.2251 29.7759 40.8492 29.5568ZM24.49 38.4123V22.8123L37.8075 30.6135L24.49 38.4123Z" fill="#FFE5B4"/>
</svg>
